# xmcd
#
# Track frame offsets: 
#        150
#        13350
#        28847
#        39707
#        52052
#        66235
#        79217
#        90804
#        101547
#        113100
#        126170
#        136450
#        146462
#        159442
#        171797
#        183252
#        194400
#        206395
#        218487
#        231457
#
# Disc length: 3233 seconds
#
# Revision: 0
# Processed by: cddbd v1.5.2PL0 Copyright (c) Steve Scherf et al.
# Submitted via: ExactAudioCopy v0.95b4
#
DISCID=1c0c9f14
DTITLE=Sons Of The Pioneers - How Great Thou Art and Other Cowboy Spirit
DTITLE=uals 
DYEAR=1951
DGENRE=Country
TTITLE0=How Great Thou Art (1955)
TTITLE1=Little White Cross (1959)
TTITLE2=Power In The Blood (1947)
TTITLE3=Lead Me Gently Home, Father (1947)
TTITLE4=Rounded Up In Glory (1947)
TTITLE5=The Old Rugged Cross (1947)
TTITLE6=Resurrectus (1951)
TTITLE7=The Wondrous Word (1951)
TTITLE8=Cowboy Camp Meetin' (1946)
TTITLE9=The Touch Of God's Hand (1947)
TTITLE10=Too High, Too Wide, Too Low (1947)
TTITLE11=Read The Bible Everyday (1947)
TTITLE12=Song Of The Prodigal (1956)
TTITLE13=I Wonder When We'll Ever Know (The Wonder Of It All) (1955)
TTITLE14=The King's Highway (1955)
TTITLE15=The Lord's Prayer (1951)
TTITLE16=The Sea Walker (1947)
TTITLE17=God Has His Arms Around Me (1957)
TTITLE18=Will There Be A Sagebrush In Heaven (1947)
TTITLE19=What This Country Needs (1950)
EXTD=How Great Thou Art and Other Cowboy Spirituals\n© 2006 Texas Moon R
EXTD=ecords/Sony BMG Music Entertainment\n\nCompilation Originally Rel
EXTD=eased 2007\n\nCollectors' Choice Notes\nTitle: How Great Thou Art
EXTD=and Other Cowboy Spirituals \nArtist: Sons Of The Pioneers \n\nThi
EXTD=s is what the Sons called "A good old-fashioned talk with the Lor
EXTD=d": 20 of their best gospel tracks of the '40s and '50s! 'How Gre
EXTD=at Thou Art' (Elvis listened to their version when preparing for 
EXTD=his) joins 'The Lord's Prayer - Little White Cross - The Kings High
EXTD=way - Song of the Prodigal - Resurrectus - Power in the Blood - The O
EXTD=ld Rugged Cross', and more. 
EXTT0=
EXTT1=
EXTT2=
EXTT3=
EXTT4=
EXTT5=
EXTT6=
EXTT7=
EXTT8=
EXTT9=
EXTT10=
EXTT11=
EXTT12=
EXTT13=
EXTT14=
EXTT15=
EXTT16=
EXTT17=
EXTT18=
EXTT19=
PLAYORDER=
